<svg width="127" height="18" viewBox="0 0 127 18" fill="none" xmlns="http://www.w3.org/2000/svg">
<path d="M15.824 17V14.576H9.752V3.104H15.824V0.68H0.848V3.104H6.944V14.576H0.848V17H15.824ZM23.5357 17V2.48H23.6077L34.3837 17H39.5917V0.68H36.6637V15.2H36.5917L25.8157 0.68H20.6077V17H23.5357ZM55.2674 17L63.4274 0.8V0.68H60.2834L53.0834 15.2H53.0114L45.9794 0.68H42.6914V0.8L50.7074 17H55.2674ZM84.3052 17V14.384H69.5452V10.016H80.3932V7.472H69.5452V3.296H84.1132V0.68H66.5452V17H84.3052ZM98.2931 17.288C104.005 17.288 105.925 15.968 105.925 12.44C105.925 9.368 104.365 8.096 100.333 7.784L90.5171 7.016V2.936C91.9091 2.888 93.3251 2.912 94.7651 2.936C98.1491 2.984 101.629 3.2 104.941 3.56L104.845 0.727999C101.245 0.487999 98.2691 0.391999 94.4531 0.391999C89.2451 0.391999 87.2771 1.76 87.2771 5.264C87.2771 8.24 88.6691 9.512 92.2691 9.8L102.685 10.616V14.744C100.957 14.792 99.3731 14.768 97.7411 14.72C94.7171 14.624 91.4291 14.456 87.4931 14.072L87.6131 16.904C91.2611 17.144 94.5731 17.288 98.2931 17.288ZM118.479 17V3.296H126.855V0.68H107.103V3.296H115.479V17H118.479Z" fill="#1FF493"/>
</svg>
