<svg width="149" height="18" viewBox="0 0 149 18" fill="none" xmlns="http://www.w3.org/2000/svg">
<path d="M13.456 10.616C17.824 10.616 19.576 9.176 19.576 5.648C19.576 2.12 17.824 0.68 13.456 0.68H0.928V17H3.928V10.616H9.232L15.784 17H19.816V16.88L13.288 10.616H13.456ZM16.336 3.224V8.072H3.928V3.224H16.336ZM42.1255 17V14.384H27.3655V10.016H38.2135V7.472H27.3655V3.296H41.9335V0.68H24.3655V17H42.1255ZM62.3054 17V14.384H49.5374V0.68H46.5374V17H62.3054ZM83.4224 17V14.384H68.6624V10.016H79.5104V7.472H68.6624V3.296H83.2304V0.68H65.6624V17H83.4224ZM93.5703 0.68L85.0743 16.88V17H88.2663L90.2823 13.112H101.37L103.386 17H106.674V16.88L98.1063 0.68H93.5703ZM95.8263 2.48H95.8983L100.026 10.496H91.6503L95.8263 2.48ZM119.324 17.288C125.036 17.288 126.956 15.968 126.956 12.44C126.956 9.368 125.396 8.096 121.364 7.784L111.548 7.016V2.936C112.94 2.888 114.356 2.912 115.796 2.936C119.18 2.984 122.66 3.2 125.972 3.56L125.876 0.727999C122.276 0.487999 119.3 0.391999 115.484 0.391999C110.276 0.391999 108.308 1.76 108.308 5.264C108.308 8.24 109.7 9.512 113.3 9.8L123.716 10.616V14.744C121.988 14.792 120.404 14.768 118.772 14.72C115.748 14.624 112.46 14.456 108.524 14.072L108.644 16.904C112.292 17.144 115.604 17.288 119.324 17.288ZM148.883 17V14.384H134.123V10.016H144.971V7.472H134.123V3.296H148.691V0.68H131.123V17H148.883Z" fill="#1FF493"/>
</svg>
