<svg width="200" height="34" viewBox="0 0 200 34" fill="none" xmlns="http://www.w3.org/2000/svg">
    <path d="M43.9419 26.6839V9.27295H56.4136C63.845 9.27295 66.2359 11.2794 66.2359 17.9461C66.2359 24.6775 63.845 26.6192 56.4136 26.6192H43.9419V26.6839ZM48.5299 22.671H60.4201C60.8078 22.671 61.1309 22.3474 61.1309 21.959V14.0626C61.1309 13.6742 60.8078 13.3506 60.4201 13.3506H48.5299V22.671Z" fill="white"/>
    <path d="M82.7141 9.27295L91.3086 26.5545V26.6839H86.3329L84.6527 23.1888H74.1196L72.4395 26.6839H67.5283V26.5545L76.0582 9.27295H82.7141ZM75.929 19.4348H82.908L79.4831 12.315H79.3539L75.929 19.4348Z" fill="white"/>
    <path d="M92.6011 18.0107C92.6011 10.9557 95.2505 8.94922 104.427 8.94922C113.603 8.94922 116.252 11.0204 116.252 18.0107C116.252 25.001 113.603 27.0722 104.427 27.0722C95.3151 27.0722 92.6011 25.001 92.6011 18.0107ZM111.276 22.0237V13.9978C111.276 13.6094 110.953 13.2858 110.566 13.2858C108.562 13.1563 106.559 13.0269 104.427 13.0269C102.294 13.0269 100.291 13.0916 98.2877 13.2858C97.8999 13.2858 97.5768 13.6094 97.5768 13.9978V22.0237C97.5768 22.412 97.8999 22.7356 98.2877 22.7356C100.291 22.8651 102.294 22.9945 104.427 22.9945C106.559 22.9945 108.562 22.9298 110.566 22.7356C110.953 22.7356 111.276 22.412 111.276 22.0237Z" fill="white"/>
    <path d="M128.336 18.0107C128.336 11.0204 130.533 8.94922 138.094 8.94922C141.131 8.94922 144.491 9.07867 148.433 9.33757L148.562 13.48C145.202 13.0916 142.035 12.8327 138.223 12.7033C137.06 12.6385 135.703 12.6385 134.152 12.5738C133.764 12.5738 133.376 12.8974 133.376 13.2858V22.7356C133.376 23.124 133.699 23.4476 134.152 23.4476C135.638 23.4476 136.995 23.3829 138.223 23.3182C142.1 23.1887 145.46 22.9298 148.691 22.5415L148.562 26.6838C144.685 26.9427 141.002 27.0722 138.094 27.0722C130.533 27.0722 128.336 24.9363 128.336 18.0107Z" fill="white"/>
    <path d="M152.504 18.6581V9.27295H157.092V22.0238C157.092 22.4121 157.35 22.7357 157.738 22.7357C159.548 22.8652 161.357 22.9946 163.166 22.9946C164.976 22.9946 166.785 22.8652 168.594 22.7357C168.982 22.7357 169.241 22.4121 169.241 22.0238V9.27295H173.829V18.5933C173.829 25.0658 171.308 27.0076 163.166 27.0076C155.024 27.0723 152.504 25.1306 152.504 18.6581Z" fill="white"/>
    <path d="M179.386 26.6839V9.27295H193.021C197.932 9.27295 200 11.15 200 15.2276C200 19.37 197.932 21.1823 193.021 21.1823H183.974V26.6192H179.386V26.6839ZM183.974 17.493H194.314C194.701 17.493 195.024 17.1694 195.024 16.781V13.8037C195.024 13.4153 194.701 13.0917 194.314 13.0917H183.974V17.493Z" fill="white"/>
    <path d="M22.4233 24.9362V20.5996L13.3764 24.2889L4.32959 20.5996V24.9362L10.4685 27.4604V28.3019C10.4685 29.92 9.17612 31.2145 7.56061 31.2145H5.81586V33.3504H20.937V31.2145H19.2569C17.6414 31.2145 16.349 29.92 16.349 28.3019V27.4604L22.4233 24.9362Z" fill="#1FF493"/>
    <path d="M22.4233 24.9362V20.5996L13.3764 24.2889L4.32959 20.5996V24.9362L10.4685 27.4604V28.3019C10.4685 29.92 9.17612 31.2145 7.56061 31.2145H5.81586V33.3504H20.937V31.2145H19.2569C17.6414 31.2145 16.349 29.92 16.349 28.3019V27.4604L22.4233 24.9362Z" fill="#1FF493"/>
    <path d="M22.4233 24.9362V20.5996L13.3765 24.2889V33.3504H20.937V31.2145H19.2569C17.6414 31.2145 16.349 29.92 16.349 28.3019V27.4604L22.4233 24.9362Z" fill="#1FF493"/>
    <path d="M10.4039 4.15961L0.258481 0.0172159C0.129241 -0.047509 0 0.0819409 0 0.211391V2.92984V4.67741V9.07871C0 9.14343 0.0646204 9.20816 0.129241 9.27288L3.42488 10.6321C3.55412 10.6968 3.68336 10.5674 3.68336 10.4379V6.42498C3.68336 6.29553 3.8126 6.23081 3.94184 6.23081L7.43134 7.65476C7.68982 7.78421 7.88368 8.04311 7.88368 8.30201V14.5803C7.88368 14.7098 7.75444 14.7745 7.6252 14.7745L0.258481 11.7972C0.129241 11.7972 0 11.8619 0 11.9913V16.3279C0 16.3926 0.0646204 16.4573 0.129241 16.5221L7.88368 19.6936L12.0194 21.3764C12.1486 21.4412 12.2779 21.3117 12.2779 21.1823V6.87806C12.2779 5.71301 11.567 4.61269 10.4039 4.15961Z" fill="#1FF493"/>
    <path d="M14.4751 6.87793V21.1821C14.4751 21.3116 14.6043 21.3763 14.7336 21.3763L18.8693 19.6935L26.6237 16.5219C26.6883 16.5219 26.753 16.4572 26.753 16.3278V11.9912C26.753 11.8618 26.6237 11.797 26.4945 11.797L19.1278 14.7744C18.9985 14.8391 18.8693 14.7096 18.8693 14.5802V8.30188C18.8693 7.97826 19.0631 7.71936 19.3216 7.65463L22.8111 6.23068C22.9404 6.16596 23.0696 6.29541 23.0696 6.42486V10.3731C23.0696 10.5025 23.1988 10.5673 23.3281 10.5673L26.6237 9.20803C26.6883 9.20803 26.753 9.1433 26.753 9.01385V4.67728V2.92971V0.211265C26.753 0.0818148 26.6237 0.0170898 26.4945 0.0170898L16.2845 4.15948C15.1859 4.61256 14.4751 5.71288 14.4751 6.87793Z" fill="#1FF493"/>
</svg>